<svg width="59" height="25" viewBox="0 0 59 25" fill="none" xmlns="http://www.w3.org/2000/svg">
<path d="M7.032 19C6.104 19 5.264 18.808 4.512 18.424C3.776 18.024 3.144 17.456 2.616 16.72C2.088 15.968 1.68 15.064 1.392 14.008C1.12 12.936 0.984 11.728 0.984 10.384C0.984 9.072 1.128 7.872 1.416 6.784C1.704 5.696 2.112 4.768 2.64 4C3.184 3.232 3.832 2.64 4.584 2.224C5.352 1.792 6.2 1.576 7.128 1.576C8.056 1.576 8.896 1.792 9.648 2.224C10.4 2.64 11.04 3.232 11.568 4C12.096 4.768 12.504 5.688 12.792 6.76C13.08 7.816 13.224 8.984 13.224 10.264C13.224 10.936 13.16 11.6 13.032 12.256C12.92 12.912 12.752 13.52 12.528 14.08C12.32 14.64 12.072 15.128 11.784 15.544C11.512 15.96 11.224 16.272 10.92 16.48V16.576L13.944 16.528V19H7.032ZM10.272 10.384C10.272 9.536 10.2 8.744 10.056 8.008C9.928 7.272 9.728 6.64 9.456 6.112C9.184 5.568 8.848 5.144 8.448 4.84C8.064 4.52 7.624 4.36 7.128 4.36C6.616 4.36 6.16 4.52 5.76 4.84C5.376 5.144 5.048 5.568 4.776 6.112C4.504 6.64 4.296 7.272 4.152 8.008C4.024 8.744 3.96 9.536 3.96 10.384C3.96 11.232 4.032 12.024 4.176 12.76C4.32 13.496 4.528 14.136 4.8 14.68C5.072 15.208 5.4 15.632 5.784 15.952C6.184 16.256 6.64 16.408 7.152 16.408C7.664 16.408 8.112 16.248 8.496 15.928C8.896 15.592 9.224 15.152 9.48 14.608C9.752 14.048 9.952 13.408 10.08 12.688C10.208 11.952 10.272 11.184 10.272 10.384ZM31.0868 8.848V15.136C31.0868 15.808 31.1828 16.296 31.3748 16.6C31.5828 16.904 31.8948 17.056 32.3108 17.056C32.4548 17.056 32.5988 17.04 32.7428 17.008C32.9028 16.976 33.0388 16.928 33.1508 16.864L33.1988 18.976C33.0068 19.072 32.7508 19.152 32.4308 19.216C32.1108 19.28 31.7908 19.312 31.4708 19.312C30.4308 19.312 29.6788 19.008 29.2148 18.4C28.7668 17.776 28.5428 16.888 28.5428 15.736V8.848H27.0068V6.76H28.5428V3.64H31.0868V6.76H33.2228V8.848H31.0868ZM39.0991 3.208C39.0991 3.688 38.9471 4.088 38.6431 4.408C38.3391 4.728 37.9631 4.888 37.5151 4.888C37.0511 4.888 36.6671 4.728 36.3631 4.408C36.0751 4.088 35.9311 3.688 35.9311 3.208C35.9311 2.744 36.0751 2.344 36.3631 2.008C36.6671 1.672 37.0511 1.504 37.5151 1.504C37.9791 1.504 38.3551 1.672 38.6431 2.008C38.9471 2.344 39.0991 2.744 39.0991 3.208ZM36.1711 19V6.76H38.8591V19H36.1711ZM48.1402 2.752C47.9322 2.672 47.6922 2.632 47.4202 2.632C47.1162 2.632 46.8682 2.704 46.6762 2.848C46.4842 2.976 46.3322 3.152 46.2202 3.376C46.1082 3.6 46.0282 3.856 45.9802 4.144C45.9322 4.432 45.9082 4.728 45.9082 5.032V6.76H47.8762V8.92H45.9322V19H43.2922V8.92H41.7562V6.76H43.2922V4.984C43.2922 4.344 43.3562 3.744 43.4842 3.184C43.6282 2.608 43.8442 2.112 44.1322 1.696C44.4362 1.28 44.8282 0.951999 45.3082 0.711999C45.7882 0.472 46.3642 0.352 47.0362 0.352C47.2282 0.352 47.4442 0.368 47.6842 0.399999C47.9242 0.431999 48.1322 0.479999 48.3082 0.543999L48.1402 2.752ZM55.2735 20.68C55.1135 21.288 54.9215 21.84 54.6975 22.336C54.4895 22.848 54.2255 23.28 53.9055 23.632C53.5855 24 53.2015 24.28 52.7535 24.472C52.3215 24.664 51.8095 24.76 51.2175 24.76C50.8975 24.76 50.5855 24.736 50.2815 24.688C49.9935 24.656 49.7535 24.608 49.5615 24.544L49.8975 22.096C50.0255 22.144 50.1775 22.184 50.3535 22.216C50.5455 22.264 50.7295 22.288 50.9055 22.288C51.3375 22.288 51.6655 22.152 51.8895 21.88C52.1135 21.624 52.2815 21.264 52.3935 20.8L52.7535 19.288L49.1775 6.76H52.0335L54.1695 15.976H54.2415L56.1855 6.76H58.9455L55.2735 20.68Z" fill="white"/>
</svg>
