<?xml version="1.0" standalone="no"?>
<!DOCTYPE svg PUBLIC "-//W3C//DTD SVG 20010904//EN"
 "http://www.w3.org/TR/2001/REC-SVG-20010904/DTD/svg10.dtd">
<svg version="1.0" xmlns="http://www.w3.org/2000/svg"
 width="67.000000pt" height="36.000000pt" viewBox="0 0 67.000000 36.000000"
 preserveAspectRatio="xMidYMid meet">

<g transform="translate(0.000000,36.000000) scale(0.100000,-0.100000)"
fill="#000000" stroke="none">
<path d="M81 343 c-48 -25 -73 -63 -79 -122 -5 -60 2 -97 23 -105 32 -12 45 5
45 56 0 41 -3 51 -20 55 -29 8 -25 30 14 69 28 28 42 34 76 34 34 0 48 -6 76
-34 39 -39 43 -61 14 -69 -17 -4 -20 -14 -20 -55 0 -36 4 -52 16 -56 21 -8 20
-8 38 10 22 21 21 109 -2 153 -35 69 -117 98 -181 64z"/>
</g>
</svg>
